<svg width="69" height="95" viewBox="0 0 69 95" fill="none" xmlns="http://www.w3.org/2000/svg">
<rect width="69" height="95" fill="white"/>
<path d="M7.885 88.1475C7.92167 88.1475 7.95417 88.1617 7.9825 88.19L8.2475 88.4775C8.10083 88.6592 7.92 88.7983 7.705 88.895C7.49167 88.9917 7.235 89.04 6.935 89.04C6.66667 89.04 6.425 88.9942 6.21 88.9025C5.99667 88.8108 5.81417 88.6833 5.6625 88.52C5.51083 88.3567 5.39417 88.1617 5.3125 87.935C5.2325 87.7083 5.1925 87.4608 5.1925 87.1925C5.1925 86.9208 5.23583 86.6725 5.3225 86.4475C5.40917 86.2208 5.53083 86.0258 5.6875 85.8625C5.84583 85.6992 6.03417 85.5725 6.2525 85.4825C6.47083 85.3908 6.7125 85.345 6.9775 85.345C7.24083 85.345 7.47417 85.3883 7.6775 85.475C7.8825 85.5617 8.05667 85.675 8.2 85.815L7.975 86.1275C7.96167 86.1475 7.94417 86.165 7.9225 86.18C7.9025 86.195 7.87417 86.2025 7.8375 86.2025C7.8125 86.2025 7.78667 86.1958 7.76 86.1825C7.73333 86.1675 7.70417 86.15 7.6725 86.13C7.64083 86.1083 7.60417 86.085 7.5625 86.06C7.52083 86.035 7.4725 86.0125 7.4175 85.9925C7.3625 85.9708 7.29833 85.9533 7.225 85.94C7.15333 85.925 7.07 85.9175 6.975 85.9175C6.81333 85.9175 6.665 85.9467 6.53 86.005C6.39667 86.0617 6.28167 86.145 6.185 86.255C6.08833 86.3633 6.01333 86.4967 5.96 86.655C5.90667 86.8117 5.88 86.9908 5.88 87.1925C5.88 87.3958 5.90833 87.5767 5.965 87.735C6.02333 87.8933 6.10167 88.0267 6.2 88.135C6.29833 88.2433 6.41417 88.3267 6.5475 88.385C6.68083 88.4417 6.82417 88.47 6.9775 88.47C7.06917 88.47 7.15167 88.465 7.225 88.455C7.3 88.445 7.36833 88.4292 7.43 88.4075C7.49333 88.3858 7.5525 88.3583 7.6075 88.325C7.66417 88.29 7.72 88.2475 7.775 88.1975C7.79167 88.1825 7.80917 88.1708 7.8275 88.1625C7.84583 88.1525 7.865 88.1475 7.885 88.1475ZM10.6182 87.635L10.1782 86.4325C10.1565 86.3792 10.134 86.3158 10.1107 86.2425C10.0873 86.1692 10.064 86.09 10.0407 86.005C10.019 86.09 9.9965 86.17 9.97316 86.245C9.94983 86.3183 9.92733 86.3825 9.90566 86.4375L9.46816 87.635H10.6182ZM11.8057 89H11.2857C11.2273 89 11.1798 88.9858 11.1432 88.9575C11.1065 88.9275 11.079 88.8908 11.0607 88.8475L10.7907 88.11H9.29316L9.02316 88.8475C9.00983 88.8858 8.984 88.9208 8.94566 88.9525C8.90733 88.9842 8.85983 89 8.80316 89H8.27816L9.70066 85.385H10.3857L11.8057 89ZM13.2723 87.105C13.399 87.105 13.509 87.0892 13.6023 87.0575C13.6973 87.0258 13.7748 86.9825 13.8348 86.9275C13.8965 86.8708 13.9423 86.8042 13.9723 86.7275C14.0023 86.6508 14.0173 86.5667 14.0173 86.475C14.0173 86.2917 13.9565 86.1508 13.8348 86.0525C13.7148 85.9542 13.5307 85.905 13.2823 85.905H12.8523V87.105H13.2723ZM15.0023 89H14.3948C14.2798 89 14.1965 88.955 14.1448 88.865L13.3848 87.7075C13.3565 87.6642 13.3248 87.6333 13.2898 87.615C13.2565 87.5967 13.2065 87.5875 13.1398 87.5875H12.8523V89H12.1798V85.385H13.2823C13.5273 85.385 13.7373 85.4108 13.9123 85.4625C14.089 85.5125 14.2332 85.5833 14.3448 85.675C14.4582 85.7667 14.5415 85.8767 14.5948 86.005C14.6482 86.1317 14.6748 86.2717 14.6748 86.425C14.6748 86.5467 14.6565 86.6617 14.6198 86.77C14.5848 86.8783 14.5332 86.9767 14.4648 87.065C14.3982 87.1533 14.3148 87.2308 14.2148 87.2975C14.1165 87.3642 14.004 87.4167 13.8773 87.455C13.9207 87.48 13.9607 87.51 13.9973 87.545C14.034 87.5783 14.0673 87.6183 14.0973 87.665L15.0023 89ZM21.3844 85.385L20.2619 89H19.6544L18.8644 86.53C18.8427 86.47 18.8227 86.3967 18.8044 86.31C18.7944 86.3517 18.7844 86.3908 18.7744 86.4275C18.7644 86.4642 18.7535 86.4983 18.7419 86.53L17.9444 89H17.3344L16.2144 85.385H16.7769C16.8352 85.385 16.8835 85.3992 16.9219 85.4275C16.9619 85.4542 16.9885 85.4908 17.0019 85.5375L17.6169 87.7C17.6302 87.7533 17.6427 87.8117 17.6544 87.875C17.6677 87.9367 17.681 88.0017 17.6944 88.07C17.7077 88 17.7219 87.9342 17.7369 87.8725C17.7535 87.8108 17.771 87.7533 17.7894 87.7L18.4994 85.5375C18.5127 85.4992 18.5385 85.4642 18.5769 85.4325C18.6169 85.4008 18.6652 85.385 18.7219 85.385H18.9194C18.9777 85.385 19.0252 85.3992 19.0619 85.4275C19.0985 85.4558 19.126 85.4925 19.1444 85.5375L19.8519 87.7C19.8869 87.8033 19.9185 87.9225 19.9469 88.0575C19.9685 87.9258 19.9927 87.8067 20.0194 87.7L20.6344 85.5375C20.6444 85.4958 20.6694 85.46 20.7094 85.43C20.751 85.4 20.8002 85.385 20.8569 85.385H21.3844ZM23.499 87.635L23.059 86.4325C23.0374 86.3792 23.0149 86.3158 22.9915 86.2425C22.9682 86.1692 22.9449 86.09 22.9215 86.005C22.8999 86.09 22.8774 86.17 22.854 86.245C22.8307 86.3183 22.8082 86.3825 22.7865 86.4375L22.349 87.635H23.499ZM24.6865 89H24.1665C24.1082 89 24.0607 88.9858 24.024 88.9575C23.9874 88.9275 23.9599 88.8908 23.9415 88.8475L23.6715 88.11H22.174L21.904 88.8475C21.8907 88.8858 21.8649 88.9208 21.8265 88.9525C21.7882 88.9842 21.7407 89 21.684 89H21.159L22.5815 85.385H23.2665L24.6865 89ZM26.9857 86.0425C26.9657 86.0775 26.944 86.1033 26.9207 86.12C26.899 86.135 26.8715 86.1425 26.8382 86.1425C26.8032 86.1425 26.7649 86.13 26.7232 86.105C26.6832 86.0783 26.6349 86.0492 26.5782 86.0175C26.5215 85.9858 26.4549 85.9575 26.3782 85.9325C26.3032 85.9058 26.214 85.8925 26.1107 85.8925C26.0174 85.8925 25.9357 85.9042 25.8657 85.9275C25.7957 85.9492 25.7365 85.98 25.6882 86.02C25.6415 86.06 25.6065 86.1083 25.5832 86.165C25.5599 86.22 25.5482 86.2808 25.5482 86.3475C25.5482 86.4325 25.5715 86.5033 25.6182 86.56C25.6665 86.6167 25.7299 86.665 25.8082 86.705C25.8865 86.745 25.9757 86.7808 26.0757 86.8125C26.1757 86.8442 26.2782 86.8783 26.3832 86.915C26.4882 86.95 26.5907 86.9917 26.6907 87.04C26.7907 87.0867 26.8799 87.1467 26.9582 87.22C27.0365 87.2917 27.099 87.38 27.1457 87.485C27.194 87.59 27.2182 87.7175 27.2182 87.8675C27.2182 88.0308 27.1899 88.1842 27.1332 88.3275C27.0782 88.4692 26.9965 88.5933 26.8882 88.7C26.7815 88.805 26.6507 88.8883 26.4957 88.95C26.3407 89.01 26.1632 89.04 25.9632 89.04C25.8482 89.04 25.7349 89.0283 25.6232 89.005C25.5115 88.9833 25.404 88.9517 25.3007 88.91C25.199 88.8683 25.1032 88.8183 25.0132 88.76C24.9232 88.7017 24.8432 88.6367 24.7732 88.565L24.9707 88.2425C24.9874 88.2192 25.009 88.2 25.0357 88.185C25.0624 88.1683 25.0907 88.16 25.1207 88.16C25.1624 88.16 25.2074 88.1775 25.2557 88.2125C25.304 88.2458 25.3615 88.2833 25.4282 88.325C25.4949 88.3667 25.5724 88.405 25.6607 88.44C25.7507 88.4733 25.8582 88.49 25.9832 88.49C26.1749 88.49 26.3232 88.445 26.4282 88.355C26.5332 88.2633 26.5857 88.1325 26.5857 87.9625C26.5857 87.8675 26.5615 87.79 26.5132 87.73C26.4665 87.67 26.404 87.62 26.3257 87.58C26.2474 87.5383 26.1582 87.5033 26.0582 87.475C25.9582 87.4467 25.8565 87.4158 25.7532 87.3825C25.6499 87.3492 25.5482 87.3092 25.4482 87.2625C25.3482 87.2158 25.259 87.155 25.1807 87.08C25.1024 87.005 25.039 86.9117 24.9907 86.8C24.944 86.6867 24.9207 86.5475 24.9207 86.3825C24.9207 86.2508 24.9465 86.1225 24.9982 85.9975C25.0515 85.8725 25.1282 85.7617 25.2282 85.665C25.3282 85.5683 25.4515 85.4908 25.5982 85.4325C25.7449 85.3742 25.9132 85.345 26.1032 85.345C26.3165 85.345 26.5132 85.3783 26.6932 85.445C26.8732 85.5117 27.0265 85.605 27.1532 85.725L26.9857 86.0425ZM30.8523 85.385V89H30.1773V87.42H28.4798V89H27.8048V85.385H28.4798V86.94H30.1773V85.385H30.8523ZM33.6657 87.31C33.5324 87.3967 33.4349 87.495 33.3732 87.605C33.3132 87.7133 33.2832 87.83 33.2832 87.955C33.2832 88.0467 33.299 88.1292 33.3307 88.2025C33.3624 88.2758 33.4049 88.3383 33.4582 88.39C33.5132 88.44 33.5765 88.4792 33.6482 88.5075C33.7215 88.5342 33.799 88.5475 33.8807 88.5475C34.0274 88.5475 34.1615 88.525 34.2832 88.48C34.4049 88.4333 34.5149 88.3692 34.6132 88.2875L33.6657 87.31ZM36.0732 89H35.4682C35.4049 89 35.3532 88.9925 35.3132 88.9775C35.2749 88.9625 35.234 88.9308 35.1907 88.8825L34.9407 88.625C34.7824 88.755 34.6049 88.8567 34.4082 88.93C34.2115 89.0033 33.999 89.04 33.7707 89.04C33.6324 89.04 33.4957 89.0167 33.3607 88.97C33.2274 88.9217 33.1082 88.8525 33.0032 88.7625C32.8982 88.6725 32.8132 88.5642 32.7482 88.4375C32.6849 88.3092 32.6532 88.165 32.6532 88.005C32.6532 87.8917 32.6715 87.785 32.7082 87.685C32.7449 87.5833 32.7957 87.4892 32.8607 87.4025C32.9257 87.3158 33.0032 87.2383 33.0932 87.17C33.1832 87.1 33.2815 87.04 33.3882 86.99C33.2982 86.865 33.2332 86.7433 33.1932 86.625C33.1532 86.505 33.1332 86.3858 33.1332 86.2675C33.1332 86.1425 33.1557 86.0242 33.2007 85.9125C33.2474 85.7992 33.314 85.7008 33.4007 85.6175C33.4874 85.5342 33.594 85.4683 33.7207 85.42C33.8474 85.37 33.9907 85.345 34.1507 85.345C34.2974 85.345 34.4282 85.3675 34.5432 85.4125C34.6599 85.4575 34.759 85.5175 34.8407 85.5925C34.924 85.6675 34.989 85.7533 35.0357 85.85C35.084 85.9467 35.1124 86.0467 35.1207 86.15L34.7282 86.2325C34.6549 86.2475 34.6015 86.2158 34.5682 86.1375C34.5532 86.0942 34.5332 86.0533 34.5082 86.015C34.4849 85.975 34.4565 85.9408 34.4232 85.9125C34.3899 85.8825 34.3507 85.8592 34.3057 85.8425C34.2607 85.8242 34.209 85.815 34.1507 85.815C34.0807 85.815 34.0182 85.8275 33.9632 85.8525C33.9082 85.8758 33.8615 85.9083 33.8232 85.95C33.7865 85.99 33.7582 86.0375 33.7382 86.0925C33.7182 86.1458 33.7082 86.2025 33.7082 86.2625C33.7082 86.3125 33.7132 86.3608 33.7232 86.4075C33.7332 86.4542 33.7499 86.5008 33.7732 86.5475C33.7965 86.5942 33.8265 86.6425 33.8632 86.6925C33.9015 86.7408 33.9482 86.7933 34.0032 86.85L34.9632 87.8475C35.0182 87.7425 35.0624 87.6317 35.0957 87.515C35.129 87.3983 35.1507 87.28 35.1607 87.16C35.1657 87.1217 35.179 87.0908 35.2007 87.0675C35.2224 87.0442 35.2524 87.0325 35.2907 87.0325H35.6757C35.674 87.2525 35.6424 87.4625 35.5807 87.6625C35.519 87.8625 35.4307 88.0467 35.3157 88.215L36.0732 89ZM39.0597 88.475C39.1847 88.475 39.2897 88.46 39.3747 88.43C39.4597 88.4 39.5272 88.36 39.5772 88.31C39.6289 88.26 39.6655 88.2017 39.6872 88.135C39.7105 88.0683 39.7222 87.9975 39.7222 87.9225C39.7222 87.8442 39.7097 87.7742 39.6847 87.7125C39.6597 87.6492 39.6205 87.5958 39.5672 87.5525C39.5139 87.5075 39.4447 87.4733 39.3597 87.45C39.2764 87.4267 39.1755 87.415 39.0572 87.415H38.3797V88.475H39.0597ZM38.3797 85.905V86.95H38.9147C39.1447 86.95 39.318 86.9083 39.4347 86.825C39.553 86.7417 39.6122 86.6092 39.6122 86.4275C39.6122 86.2392 39.5589 86.105 39.4522 86.025C39.3455 85.945 39.1789 85.905 38.9522 85.905H38.3797ZM38.9522 85.385C39.1889 85.385 39.3914 85.4075 39.5597 85.4525C39.728 85.4975 39.8655 85.5617 39.9722 85.645C40.0805 85.7283 40.1597 85.8292 40.2097 85.9475C40.2597 86.0658 40.2847 86.1992 40.2847 86.3475C40.2847 86.4325 40.2722 86.5142 40.2472 86.5925C40.2222 86.6692 40.183 86.7417 40.1297 86.81C40.078 86.8767 40.0114 86.9375 39.9297 86.9925C39.8497 87.0475 39.7539 87.0942 39.6422 87.1325C40.1389 87.2442 40.3872 87.5125 40.3872 87.9375C40.3872 88.0908 40.358 88.2325 40.2997 88.3625C40.2414 88.4925 40.1564 88.605 40.0447 88.7C39.933 88.7933 39.7955 88.8667 39.6322 88.92C39.4689 88.9733 39.2822 89 39.0722 89H37.7072V85.385H38.9522ZM41.6732 89H40.9982V85.385H41.6732V89ZM43.1551 86.9H43.3126C43.3759 86.9 43.4284 86.8917 43.4701 86.875C43.5117 86.8567 43.5476 86.8283 43.5776 86.79L44.5751 85.5275C44.6167 85.4742 44.6601 85.4375 44.7051 85.4175C44.7517 85.3958 44.8101 85.385 44.8801 85.385H45.4601L44.2426 86.8875C44.1709 86.9792 44.0967 87.0442 44.0201 87.0825C44.0751 87.1025 44.1242 87.1308 44.1676 87.1675C44.2126 87.2025 44.2551 87.2492 44.2951 87.3075L45.5501 89H44.9576C44.8776 89 44.8176 88.9892 44.7776 88.9675C44.7392 88.9442 44.7067 88.9108 44.6801 88.8675L43.6576 87.5325C43.6259 87.4875 43.5892 87.4558 43.5476 87.4375C43.5059 87.4192 43.4459 87.41 43.3676 87.41H43.1551V89H42.4826V85.385H43.1551V86.9ZM46.5853 85.92V86.9225H47.8503V87.44H46.5853V88.4625H48.1903V89H45.9103V85.385H48.1903V85.92H46.5853ZM52.4846 88.1475C52.5213 88.1475 52.5538 88.1617 52.5821 88.19L52.8471 88.4775C52.7004 88.6592 52.5196 88.7983 52.3046 88.895C52.0913 88.9917 51.8346 89.04 51.5346 89.04C51.2663 89.04 51.0246 88.9942 50.8096 88.9025C50.5963 88.8108 50.4138 88.6833 50.2621 88.52C50.1104 88.3567 49.9938 88.1617 49.9121 87.935C49.8321 87.7083 49.7921 87.4608 49.7921 87.1925C49.7921 86.9208 49.8354 86.6725 49.9221 86.4475C50.0088 86.2208 50.1304 86.0258 50.2871 85.8625C50.4454 85.6992 50.6338 85.5725 50.8521 85.4825C51.0704 85.3908 51.3121 85.345 51.5771 85.345C51.8404 85.345 52.0738 85.3883 52.2771 85.475C52.4821 85.5617 52.6563 85.675 52.7996 85.815L52.5746 86.1275C52.5613 86.1475 52.5438 86.165 52.5221 86.18C52.5021 86.195 52.4738 86.2025 52.4371 86.2025C52.4121 86.2025 52.3863 86.1958 52.3596 86.1825C52.3329 86.1675 52.3038 86.15 52.2721 86.13C52.2404 86.1083 52.2038 86.085 52.1621 86.06C52.1204 86.035 52.0721 86.0125 52.0171 85.9925C51.9621 85.9708 51.8979 85.9533 51.8246 85.94C51.7529 85.925 51.6696 85.9175 51.5746 85.9175C51.4129 85.9175 51.2646 85.9467 51.1296 86.005C50.9963 86.0617 50.8813 86.145 50.7846 86.255C50.6879 86.3633 50.6129 86.4967 50.5596 86.655C50.5063 86.8117 50.4796 86.9908 50.4796 87.1925C50.4796 87.3958 50.5079 87.5767 50.5646 87.735C50.6229 87.8933 50.7013 88.0267 50.7996 88.135C50.8979 88.2433 51.0138 88.3267 51.1471 88.385C51.2804 88.4417 51.4238 88.47 51.5771 88.47C51.6688 88.47 51.7513 88.465 51.8246 88.455C51.8996 88.445 51.9679 88.4292 52.0296 88.4075C52.0929 88.3858 52.1521 88.3583 52.2071 88.325C52.2638 88.29 52.3196 88.2475 52.3746 88.1975C52.3913 88.1825 52.4088 88.1708 52.4271 88.1625C52.4454 88.1525 52.4646 88.1475 52.4846 88.1475ZM55.2178 87.635L54.7778 86.4325C54.7561 86.3792 54.7336 86.3158 54.7103 86.2425C54.6869 86.1692 54.6636 86.09 54.6403 86.005C54.6186 86.09 54.5961 86.17 54.5728 86.245C54.5494 86.3183 54.5269 86.3825 54.5053 86.4375L54.0678 87.635H55.2178ZM56.4053 89H55.8853C55.8269 89 55.7794 88.9858 55.7428 88.9575C55.7061 88.9275 55.6786 88.8908 55.6603 88.8475L55.3903 88.11H53.8928L53.6228 88.8475C53.6094 88.8858 53.5836 88.9208 53.5453 88.9525C53.5069 88.9842 53.4594 89 53.4028 89H52.8778L54.3003 85.385H54.9853L56.4053 89ZM57.872 87.105C57.9986 87.105 58.1086 87.0892 58.202 87.0575C58.297 87.0258 58.3745 86.9825 58.4345 86.9275C58.4961 86.8708 58.542 86.8042 58.572 86.7275C58.602 86.6508 58.617 86.5667 58.617 86.475C58.617 86.2917 58.5561 86.1508 58.4345 86.0525C58.3145 85.9542 58.1303 85.905 57.882 85.905H57.452V87.105H57.872ZM59.602 89H58.9945C58.8795 89 58.7961 88.955 58.7445 88.865L57.9845 87.7075C57.9561 87.6642 57.9245 87.6333 57.8895 87.615C57.8561 87.5967 57.8061 87.5875 57.7395 87.5875H57.452V89H56.7795V85.385H57.882C58.127 85.385 58.337 85.4108 58.512 85.4625C58.6886 85.5125 58.8328 85.5833 58.9445 85.675C59.0578 85.7667 59.1411 85.8767 59.1945 86.005C59.2478 86.1317 59.2745 86.2717 59.2745 86.425C59.2745 86.5467 59.2561 86.6617 59.2195 86.77C59.1845 86.8783 59.1328 86.9767 59.0645 87.065C58.9978 87.1533 58.9145 87.2308 58.8145 87.2975C58.7161 87.3642 58.6036 87.4167 58.477 87.455C58.5203 87.48 58.5603 87.51 58.597 87.545C58.6336 87.5783 58.667 87.6183 58.697 87.665L59.602 89ZM60.6673 85.92V86.9225H61.9323V87.44H60.6673V88.4625H62.2723V89H59.9923V85.385H62.2723V85.92H60.6673Z" fill="#082E40"/>
<path d="M11.566 72.789C11.5007 72.8963 11.433 72.9757 11.363 73.027C11.2977 73.0737 11.2113 73.097 11.104 73.097C11.0013 73.097 10.8893 73.062 10.768 72.992C10.6513 72.9173 10.5137 72.838 10.355 72.754C10.1963 72.67 10.0143 72.593 9.809 72.523C9.60367 72.4483 9.36333 72.411 9.088 72.411C8.60267 72.411 8.23867 72.5207 7.996 72.74C7.75333 72.9547 7.632 73.237 7.632 73.587C7.632 73.811 7.69733 73.9977 7.828 74.147C7.96333 74.2917 8.13833 74.4177 8.353 74.525C8.57233 74.6323 8.81967 74.728 9.095 74.812C9.37033 74.896 9.65267 74.9893 9.942 75.092C10.2313 75.19 10.5137 75.3067 10.789 75.442C11.0643 75.5773 11.3093 75.7477 11.524 75.953C11.7433 76.1583 11.9183 76.4103 12.049 76.709C12.1843 77.003 12.252 77.3623 12.252 77.787C12.252 78.249 12.1703 78.683 12.007 79.089C11.8483 79.4903 11.6173 79.8427 11.314 80.146C11.0107 80.4447 10.635 80.6803 10.187 80.853C9.74367 81.0257 9.23967 81.112 8.675 81.112C8.353 81.112 8.031 81.0793 7.709 81.014C7.39167 80.9487 7.08367 80.8577 6.785 80.741C6.491 80.6243 6.21333 80.4843 5.952 80.321C5.69067 80.1577 5.462 79.9757 5.266 79.775L5.882 78.781C5.93333 78.7063 6.001 78.6457 6.085 78.599C6.169 78.5477 6.25767 78.522 6.351 78.522C6.477 78.522 6.61 78.5687 6.75 78.662C6.89 78.7553 7.051 78.858 7.233 78.97C7.415 79.082 7.625 79.1847 7.863 79.278C8.10567 79.3713 8.395 79.418 8.731 79.418C9.221 79.418 9.599 79.306 9.865 79.082C10.1357 78.858 10.271 78.5243 10.271 78.081C10.271 77.8243 10.2033 77.6167 10.068 77.458C9.93733 77.2993 9.76467 77.1663 9.55 77.059C9.33533 76.9517 9.09033 76.8607 8.815 76.786C8.53967 76.7067 8.25733 76.6203 7.968 76.527C7.67867 76.4337 7.39633 76.3217 7.121 76.191C6.84567 76.0603 6.60067 75.8877 6.386 75.673C6.17133 75.4583 5.99633 75.1923 5.861 74.875C5.73033 74.5577 5.665 74.1633 5.665 73.692C5.665 73.314 5.73967 72.9477 5.889 72.593C6.03833 72.2383 6.25767 71.9233 6.547 71.648C6.83633 71.3727 7.191 71.151 7.611 70.983C8.03567 70.815 8.521 70.731 9.067 70.731C9.67833 70.731 10.243 70.8267 10.761 71.018C11.2837 71.2047 11.7247 71.466 12.084 71.802L11.566 72.789ZM18.9182 77.143L17.8192 74.035C17.7539 73.8717 17.6839 73.6803 17.6092 73.461C17.5392 73.2417 17.4715 73.0037 17.4062 72.747C17.3409 73.0083 17.2709 73.251 17.1962 73.475C17.1262 73.6943 17.0585 73.8857 16.9932 74.049L15.9012 77.143H18.9182ZM22.4462 81H20.8152C20.6332 81 20.4839 80.958 20.3672 80.874C20.2552 80.7853 20.1712 80.6733 20.1152 80.538L19.4292 78.599H15.3832L14.6972 80.538C14.6505 80.6547 14.5689 80.762 14.4522 80.86C14.3355 80.9533 14.1885 81 14.0112 81H12.3662L16.3352 70.843H18.4842L22.4462 81ZM25.5003 72.488V75.295H29.1543V76.947H25.5003V81H23.3863V70.843H29.8543V72.488H25.5003ZM35.844 77.143L34.745 74.035C34.6796 73.8717 34.6096 73.6803 34.535 73.461C34.465 73.2417 34.3973 73.0037 34.332 72.747C34.2666 73.0083 34.1966 73.251 34.122 73.475C34.052 73.6943 33.9843 73.8857 33.919 74.049L32.827 77.143H35.844ZM39.372 81H37.741C37.559 81 37.4096 80.958 37.293 80.874C37.181 80.7853 37.097 80.6733 37.041 80.538L36.355 78.599H32.309L31.623 80.538C31.5763 80.6547 31.4946 80.762 31.378 80.86C31.2613 80.9533 31.1143 81 30.937 81H29.292L33.261 70.843H35.41L39.372 81ZM42.426 81H40.312V70.843H42.426V81ZM47.7283 75.652C48.069 75.652 48.363 75.61 48.6103 75.526C48.8577 75.4373 49.0607 75.3183 49.2193 75.169C49.378 75.015 49.4947 74.8353 49.5693 74.63C49.644 74.4247 49.6813 74.2007 49.6813 73.958C49.6813 73.4773 49.5203 73.104 49.1983 72.838C48.881 72.572 48.3957 72.439 47.7423 72.439H46.6503V75.652H47.7283ZM52.6493 81H50.7523C50.3977 81 50.141 80.8647 49.9823 80.594L48.0503 77.479C47.971 77.3577 47.8823 77.269 47.7843 77.213C47.691 77.157 47.551 77.129 47.3643 77.129H46.6503V81H44.5503V70.843H47.7423C48.4517 70.843 49.0583 70.9177 49.5623 71.067C50.0663 71.2117 50.4793 71.4147 50.8013 71.676C51.1233 71.9373 51.359 72.25 51.5083 72.614C51.6577 72.9733 51.7323 73.37 51.7323 73.804C51.7323 74.14 51.6833 74.4597 51.5853 74.763C51.492 75.0617 51.3543 75.3347 51.1723 75.582C50.9903 75.8293 50.7663 76.0487 50.5003 76.24C50.2343 76.4313 49.931 76.5853 49.5903 76.702C49.7257 76.7767 49.8517 76.8677 49.9683 76.975C50.085 77.0777 50.19 77.2013 50.2833 77.346L52.6493 81ZM63.2921 75.918C63.2921 76.66 63.1661 77.3483 62.9141 77.983C62.6667 78.6177 62.3144 79.166 61.8571 79.628C61.4044 80.09 60.8584 80.454 60.2191 80.72C59.5797 80.9813 58.8704 81.112 58.0911 81.112C57.3117 81.112 56.6024 80.9813 55.9631 80.72C55.3237 80.454 54.7754 80.09 54.3181 79.628C53.8607 79.166 53.5061 78.6177 53.2541 77.983C53.0067 77.3483 52.8831 76.66 52.8831 75.918C52.8831 75.176 53.0067 74.49 53.2541 73.86C53.5061 73.2253 53.8607 72.677 54.3181 72.215C54.7754 71.753 55.3237 71.3913 55.9631 71.13C56.6024 70.864 57.3117 70.731 58.0911 70.731C58.8704 70.731 59.5797 70.864 60.2191 71.13C60.8584 71.3913 61.4044 71.7553 61.8571 72.222C62.3144 72.684 62.6667 73.2323 62.9141 73.867C63.1661 74.497 63.2921 75.1807 63.2921 75.918ZM61.1431 75.918C61.1431 75.386 61.0731 74.91 60.9331 74.49C60.7931 74.0653 60.5901 73.706 60.3241 73.412C60.0627 73.1133 59.7431 72.887 59.3651 72.733C58.9917 72.5743 58.5671 72.495 58.0911 72.495C57.6151 72.495 57.1881 72.5743 56.8101 72.733C56.4321 72.887 56.1101 73.1133 55.8441 73.412C55.5827 73.706 55.3821 74.0653 55.2421 74.49C55.1021 74.91 55.0321 75.386 55.0321 75.918C55.0321 76.4547 55.1021 76.9353 55.2421 77.36C55.3821 77.78 55.5827 78.137 55.8441 78.431C56.1101 78.725 56.4321 78.9513 56.8101 79.11C57.1881 79.264 57.6151 79.341 58.0911 79.341C58.5671 79.341 58.9917 79.264 59.3651 79.11C59.7431 78.9513 60.0627 78.725 60.3241 78.431C60.5901 78.137 60.7931 77.78 60.9331 77.36C61.0731 76.9353 61.1431 76.4547 61.1431 75.918Z" fill="#082E40"/>
<path d="M47.9437 43.0872C50.4058 40.6252 50.2637 36.5298 47.5167 34.2567C45.1231 32.2762 41.5731 32.5724 39.3761 34.7692L37.0733 37.0719L34.647 39.4986C31.8648 42.2805 28.21 43.6713 24.5557 43.6713C20.9015 43.6713 17.2472 42.2805 14.4651 39.4991C8.90119 33.9346 8.90119 24.8821 14.4651 19.3187L16.8924 16.8915C21.2807 12.503 18.1727 5 11.9666 5C8.1194 5 5 8.11863 5 11.9661V56.3092C5 60.1562 8.11888 63.2753 11.9666 63.2753H24.8707C26.718 63.2753 28.4901 62.5413 29.7964 61.2351L47.9437 43.0872Z" fill="#4E9F3D"/>
<path d="M43.4078 5.00103C41.5604 5.00103 39.7883 5.73505 38.482 7.04123L20.3337 25.1882C18.006 27.5157 18.006 31.303 20.3337 33.6311C22.6614 35.9577 26.4495 35.9582 28.7768 33.6306L31.2036 31.204V31.2034L33.4162 28.991C38.9074 23.5012 47.8511 23.1511 53.5021 28.4759C59.3741 34.0093 59.4779 43.2921 53.8118 48.9572L51.385 51.3838C46.9967 55.7723 50.1047 63.2753 56.3108 63.2753C60.158 63.2753 63.2774 60.1567 63.2774 56.3092V11.9661C63.2774 8.11915 60.1585 5 56.3108 5H43.4078V5.00103Z" fill="#23334A"/>
</svg>
