<svg width="108" height="150" viewBox="0 0 108 150" fill="none" xmlns="http://www.w3.org/2000/svg">
<path d="M5.68984 148.323C5.75875 148.323 5.81983 148.35 5.87307 148.403L6.37108 148.944C6.09544 149.285 5.75561 149.547 5.35157 149.728C4.95067 149.91 4.46831 150.001 3.90452 150.001C3.40025 150.001 2.94609 149.914 2.54205 149.742C2.14114 149.57 1.79817 149.33 1.51314 149.023C1.22812 148.716 1.00887 148.35 0.855396 147.924C0.705054 147.498 0.629883 147.033 0.629883 146.529C0.629883 146.018 0.711317 145.552 0.874189 145.129C1.03706 144.703 1.2657 144.336 1.56013 144.029C1.85768 143.722 2.21161 143.484 2.62192 143.315C3.03223 143.143 3.48639 143.057 3.98439 143.057C4.47927 143.057 4.91778 143.138 5.29989 143.301C5.68514 143.464 6.01246 143.677 6.28181 143.94L5.85897 144.527C5.83393 144.565 5.80104 144.598 5.76031 144.626C5.72273 144.654 5.66949 144.668 5.60057 144.668C5.55359 144.668 5.50505 144.656 5.45493 144.631C5.40481 144.602 5.35001 144.569 5.29049 144.532C5.23097 144.491 5.16208 144.447 5.08377 144.4C5.00546 144.353 4.91464 144.311 4.81128 144.274C4.70792 144.233 4.58732 144.2 4.44952 144.175C4.31483 144.147 4.15823 144.133 3.9797 144.133C3.67588 144.133 3.39712 144.187 3.14342 144.297C2.89285 144.404 2.67673 144.56 2.49507 144.767C2.3134 144.971 2.17246 145.221 2.07223 145.518C1.972 145.813 1.92189 146.15 1.92189 146.529C1.92189 146.911 1.97513 147.251 2.08163 147.548C2.19125 147.846 2.33846 148.096 2.52326 148.3C2.70805 148.504 2.92574 148.66 3.1763 148.77C3.42687 148.876 3.69624 148.929 3.98439 148.929C4.15666 148.929 4.3117 148.92 4.44952 148.901C4.59046 148.882 4.71887 148.853 4.83477 148.812C4.95378 148.771 5.06498 148.72 5.16834 148.657C5.27484 148.591 5.37976 148.511 5.48312 148.417C5.51445 148.389 5.54734 148.367 5.58178 148.352C5.61622 148.333 5.65225 148.323 5.68984 148.323ZM10.8262 147.36L9.99932 145.1C9.95862 145 9.91634 144.881 9.87247 144.743C9.82863 144.605 9.78479 144.457 9.74092 144.297C9.70022 144.457 9.65793 144.607 9.61407 144.748C9.57023 144.886 9.52794 145.007 9.48722 145.11L8.66503 147.36H10.8262ZM13.0579 149.925H12.0806C11.971 149.925 11.8817 149.899 11.8128 149.846C11.7439 149.789 11.6923 149.72 11.6578 149.639L11.1504 148.253H8.33616L7.82875 149.639C7.8037 149.711 7.75517 149.777 7.68311 149.836C7.61108 149.896 7.52181 149.925 7.41531 149.925H6.42869L9.10196 143.132H10.3893L13.0579 149.925ZM15.8142 146.364C16.0522 146.364 16.2589 146.334 16.4343 146.275C16.6128 146.215 16.7585 146.134 16.8712 146.031C16.9871 145.924 17.0733 145.799 17.1296 145.655C17.186 145.511 17.2142 145.353 17.2142 145.18C17.2142 144.836 17.0999 144.571 16.8712 144.386C16.6457 144.201 16.2996 144.109 15.8329 144.109H15.0249V146.364H15.8142ZM19.0653 149.925H17.9236C17.7075 149.925 17.5509 149.841 17.4538 149.672L16.0256 147.497C15.9723 147.415 15.9128 147.357 15.847 147.323C15.7844 147.288 15.6904 147.271 15.5652 147.271H15.0249V149.925H13.761V143.132H15.8329C16.2934 143.132 16.688 143.18 17.0169 143.278C17.3489 143.372 17.6198 143.505 17.8297 143.677C18.0427 143.849 18.1993 144.056 18.2995 144.297C18.3997 144.535 18.4498 144.798 18.4498 145.086C18.4498 145.315 18.4154 145.531 18.3465 145.735C18.2807 145.938 18.1836 146.123 18.0552 146.289C17.9299 146.455 17.7733 146.601 17.5854 146.726C17.4006 146.851 17.1892 146.95 16.9511 147.022C17.0325 147.069 17.1077 147.125 17.1766 147.191C17.2455 147.254 17.3082 147.329 17.3646 147.417L19.0653 149.925ZM31.059 143.132L28.9494 149.925H27.8078L26.3231 145.284C26.2824 145.171 26.2448 145.033 26.2104 144.87C26.1916 144.949 26.1728 145.022 26.154 145.091C26.1352 145.16 26.1149 145.224 26.0929 145.284L24.5942 149.925H23.4478L21.343 143.132H22.4001C22.5098 143.132 22.6006 143.158 22.6726 143.212C22.7478 143.262 22.7979 143.331 22.823 143.419L23.9787 147.482C24.0038 147.583 24.0273 147.692 24.0492 147.811C24.0743 147.927 24.0993 148.049 24.1244 148.178C24.1495 148.046 24.1761 147.922 24.2042 147.807C24.2356 147.691 24.2685 147.583 24.3029 147.482L25.6372 143.419C25.6623 143.346 25.7108 143.281 25.7828 143.221C25.858 143.162 25.9489 143.132 26.0553 143.132H26.4265C26.5361 143.132 26.6254 143.158 26.6943 143.212C26.7632 143.265 26.8149 143.334 26.8493 143.419L28.1789 147.482C28.2447 147.677 28.3042 147.901 28.3574 148.154C28.3982 147.907 28.4436 147.683 28.4937 147.482L29.6496 143.419C29.6684 143.34 29.7153 143.273 29.7905 143.216C29.8686 143.16 29.961 143.132 30.0676 143.132H31.059ZM35.0329 147.36L34.206 145.1C34.1652 145 34.123 144.881 34.0793 144.743C34.0353 144.605 33.9915 144.457 33.9477 144.297C33.9069 144.457 33.8645 144.607 33.8208 144.748C33.777 144.886 33.7346 145.007 33.694 145.11L32.8717 147.36H35.0329ZM37.2647 149.925H36.2874C36.1776 149.925 36.0885 149.899 36.0195 149.846C35.9505 149.789 35.899 149.72 35.8646 149.639L35.3572 148.253H32.5428L32.0354 149.639C32.0105 149.711 31.9619 149.777 31.8899 149.836C31.8177 149.896 31.7286 149.925 31.622 149.925H30.6354L33.3088 143.132H34.5961L37.2647 149.925ZM41.5854 144.368C41.5478 144.433 41.507 144.482 41.4632 144.513C41.4224 144.541 41.3709 144.555 41.3081 144.555C41.2423 144.555 41.1703 144.532 41.0919 144.485C41.0168 144.435 40.926 144.38 40.8195 144.321C40.7131 144.261 40.5878 144.208 40.4436 144.161C40.3027 144.111 40.1351 144.086 39.941 144.086C39.7657 144.086 39.6121 144.107 39.4806 144.151C39.349 144.192 39.2379 144.25 39.1469 144.325C39.0594 144.4 38.9936 144.491 38.9496 144.598C38.9058 144.701 38.8838 144.815 38.8838 144.941C38.8838 145.1 38.9278 145.234 39.0153 145.34C39.1064 145.447 39.2253 145.537 39.3724 145.612C39.5198 145.688 39.6873 145.755 39.8752 145.815C40.0632 145.874 40.2557 145.938 40.453 146.007C40.6503 146.073 40.8431 146.151 41.031 146.242C41.2189 146.33 41.3865 146.443 41.5336 146.58C41.681 146.715 41.7983 146.881 41.8861 147.078C41.9768 147.276 42.0222 147.515 42.0222 147.797C42.0222 148.104 41.969 148.392 41.8625 148.662C41.7591 148.928 41.6058 149.161 41.402 149.362C41.2017 149.559 40.9558 149.716 40.6645 149.831C40.3733 149.944 40.0396 150.001 39.6637 150.001C39.4476 150.001 39.2347 149.979 39.0247 149.935C38.8151 149.894 38.6129 149.835 38.4188 149.756C38.2277 149.678 38.0475 149.584 37.8784 149.474C37.7092 149.365 37.5589 149.243 37.4274 149.108L37.7986 148.502C37.8301 148.458 37.8706 148.422 37.9208 148.394C37.971 148.363 38.0242 148.347 38.0805 148.347C38.1589 148.347 38.2435 148.38 38.3342 148.446C38.425 148.508 38.5332 148.579 38.6583 148.657C38.7837 148.735 38.9294 148.807 39.0953 148.873C39.2645 148.936 39.4664 148.967 39.7013 148.967C40.0616 148.967 40.3402 148.882 40.5376 148.713C40.7349 148.541 40.8337 148.295 40.8337 147.976C40.8337 147.797 40.7883 147.651 40.6973 147.539C40.6098 147.426 40.4922 147.332 40.3451 147.257C40.1979 147.179 40.0302 147.113 39.8422 147.059C39.6543 147.006 39.4634 146.948 39.269 146.886C39.0749 146.823 38.8838 146.748 38.6959 146.66C38.5079 146.572 38.3404 146.458 38.1933 146.317C38.0462 146.176 37.927 146.001 37.8362 145.791C37.7484 145.578 37.7047 145.317 37.7047 145.007C37.7047 144.759 37.7533 144.518 37.8502 144.283C37.9506 144.048 38.0945 143.84 38.2824 143.658C38.4704 143.477 38.7023 143.331 38.9778 143.221C39.2535 143.111 39.5697 143.057 39.9268 143.057C40.3279 143.057 40.6973 143.119 41.0356 143.245C41.3738 143.37 41.6622 143.545 41.9 143.771L41.5854 144.368ZM48.8518 143.132V149.925H47.5832V146.956H44.3933V149.925H43.1248V143.132H44.3933V146.054H47.5832V143.132H48.8518ZM54.139 146.749C53.8885 146.912 53.7051 147.097 53.5891 147.304C53.4764 147.508 53.42 147.727 53.42 147.962C53.42 148.134 53.4498 148.289 53.5094 148.427C53.569 148.565 53.6487 148.682 53.7489 148.779C53.8522 148.873 53.9714 148.947 54.1059 149C54.2439 149.05 54.3894 149.075 54.543 149.075C54.8187 149.075 55.0708 149.033 55.2993 148.948C55.528 148.861 55.7347 148.74 55.9195 148.587L54.139 146.749ZM58.6632 149.925H57.5262C57.4073 149.925 57.3101 149.911 57.2349 149.883C57.163 149.855 57.0862 149.795 57.0049 149.705L56.535 149.221C56.2376 149.465 55.9039 149.656 55.5342 149.794C55.1648 149.932 54.7653 150.001 54.3363 150.001C54.0764 150.001 53.8195 149.957 53.5658 149.869C53.3153 149.778 53.0911 149.648 52.8938 149.479C52.6965 149.31 52.5368 149.106 52.4146 148.868C52.2957 148.627 52.2361 148.356 52.2361 148.056C52.2361 147.843 52.2707 147.642 52.3394 147.454C52.4084 147.263 52.504 147.086 52.6261 146.923C52.7483 146.76 52.8938 146.615 53.0629 146.486C53.2321 146.355 53.4171 146.242 53.6173 146.148C53.4482 145.913 53.326 145.685 53.2509 145.462C53.1757 145.237 53.1381 145.013 53.1381 144.79C53.1381 144.555 53.1805 144.333 53.2651 144.123C53.3529 143.91 53.478 143.725 53.641 143.569C53.8039 143.412 54.0042 143.289 54.2423 143.198C54.4805 143.104 54.7497 143.057 55.0504 143.057C55.3261 143.057 55.5718 143.099 55.7879 143.184C56.0072 143.268 56.1936 143.381 56.3471 143.522C56.5036 143.663 56.6258 143.824 56.7136 144.006C56.8043 144.187 56.8577 144.375 56.8733 144.569L56.1356 144.725C55.9978 144.753 55.8977 144.693 55.8349 144.546C55.8067 144.464 55.7691 144.388 55.7221 144.316C55.6784 144.241 55.6252 144.176 55.5624 144.123C55.4998 144.067 55.4263 144.023 55.3417 143.992C55.2571 143.957 55.16 143.94 55.0504 143.94C54.9189 143.94 54.8013 143.964 54.6979 144.011C54.5946 144.054 54.507 144.115 54.4348 144.194C54.3661 144.269 54.3127 144.358 54.2751 144.462C54.2375 144.562 54.2187 144.668 54.2187 144.781C54.2187 144.875 54.2281 144.966 54.2469 145.054C54.2657 145.141 54.2971 145.229 54.3409 145.317C54.3849 145.404 54.4413 145.495 54.51 145.589C54.5822 145.68 54.6697 145.779 54.7731 145.885L56.5772 147.76C56.6806 147.562 56.7638 147.354 56.8263 147.135C56.8889 146.916 56.9297 146.693 56.9485 146.468C56.9579 146.396 56.9829 146.338 57.0237 146.294C57.0645 146.25 57.1208 146.228 57.1928 146.228H57.9163C57.9131 146.641 57.8538 147.036 57.7378 147.412C57.6218 147.788 57.4559 148.134 57.2398 148.45L58.6632 149.925ZM64.2758 148.939C64.5107 148.939 64.708 148.911 64.8678 148.854C65.0275 148.798 65.1542 148.723 65.2482 148.629C65.3454 148.535 65.4144 148.425 65.4549 148.3C65.4989 148.175 65.5207 148.042 65.5207 147.901C65.5207 147.753 65.4973 147.622 65.4503 147.506C65.4034 147.387 65.3298 147.287 65.2294 147.205C65.1293 147.121 64.9993 147.057 64.8396 147.013C64.6828 146.969 64.4935 146.947 64.271 146.947H62.9979V148.939H64.2758ZM62.9979 144.109V146.073H64.0033C64.4355 146.073 64.7612 145.995 64.9805 145.838C65.2028 145.681 65.314 145.432 65.314 145.091C65.314 144.737 65.2138 144.485 65.0133 144.335C64.813 144.184 64.4997 144.109 64.0736 144.109H62.9979ZM64.0736 143.132C64.5185 143.132 64.8989 143.174 65.2154 143.259C65.5317 143.343 65.7902 143.464 65.9905 143.62C66.1943 143.777 66.343 143.966 66.437 144.189C66.5309 144.411 66.5779 144.662 66.5779 144.941C66.5779 145.1 66.5543 145.254 66.5073 145.401C66.4603 145.545 66.3868 145.681 66.2866 145.81C66.1894 145.935 66.0641 146.05 65.9108 146.153C65.7604 146.256 65.5803 146.344 65.3703 146.416C66.3038 146.626 66.7704 147.13 66.7704 147.929C66.7704 148.217 66.7156 148.483 66.6061 148.727C66.4963 148.972 66.3366 149.183 66.1269 149.362C65.9169 149.537 65.6587 149.675 65.3515 149.775C65.0447 149.875 64.6938 149.925 64.2992 149.925H61.7339V143.132H64.0736ZM69.1872 149.925H67.9186V143.132H69.1872V149.925ZM71.9722 145.979H72.2681C72.387 145.979 72.4858 145.963 72.5642 145.932C72.6423 145.898 72.7097 145.844 72.7661 145.772L74.6408 143.4C74.7189 143.299 74.8006 143.231 74.8851 143.193C74.9726 143.152 75.0825 143.132 75.214 143.132H76.304L74.0158 145.956C73.8811 146.128 73.7417 146.25 73.5978 146.322C73.7012 146.36 73.7935 146.413 73.8749 146.482C73.9594 146.548 74.0395 146.635 74.1146 146.745L76.4731 149.925H75.3595C75.2092 149.925 75.0964 149.905 75.0212 149.864C74.9493 149.82 74.8881 149.758 74.8381 149.677L72.9164 147.168C72.8568 147.083 72.7881 147.024 72.7097 146.989C72.6313 146.955 72.5186 146.937 72.3715 146.937H71.9722V149.925H70.7083V143.132H71.9722V145.979ZM78.4184 144.137V146.021H80.7957V146.994H78.4184V148.915H81.4347V149.925H77.1499V143.132H81.4347V144.137H78.4184ZM89.5048 148.323C89.5738 148.323 89.6348 148.35 89.6882 148.403L90.1862 148.944C89.9105 149.285 89.5706 149.547 89.1666 149.728C88.7657 149.91 88.2833 150.001 87.7195 150.001C87.2153 150.001 86.7611 149.914 86.357 149.742C85.9562 149.57 85.6131 149.33 85.3283 149.023C85.0432 148.716 84.8238 148.35 84.6705 147.924C84.5202 147.498 84.445 147.033 84.445 146.529C84.445 146.018 84.5264 145.552 84.6893 145.129C84.852 144.703 85.0807 144.336 85.3753 144.029C85.6727 143.722 86.0266 143.484 86.437 143.315C86.8473 143.143 87.3015 143.057 87.7995 143.057C88.2943 143.057 88.7327 143.138 89.115 143.301C89.5003 143.464 89.8275 143.677 90.0968 143.94L89.674 144.527C89.649 144.565 89.616 144.598 89.5754 144.626C89.5379 144.654 89.4844 144.668 89.4157 144.668C89.3687 144.668 89.3201 144.656 89.2699 144.631C89.22 144.602 89.165 144.569 89.1056 144.532C89.046 144.491 88.977 144.447 88.8989 144.4C88.8205 144.353 88.7298 144.311 88.6264 144.274C88.523 144.233 88.4025 144.2 88.2645 144.175C88.13 144.147 87.9732 144.133 87.7947 144.133C87.4911 144.133 87.2121 144.187 86.9584 144.297C86.7079 144.404 86.4918 144.56 86.3101 144.767C86.1286 144.971 85.9876 145.221 85.8872 145.518C85.7871 145.813 85.7369 146.15 85.7369 146.529C85.7369 146.911 85.7903 147.251 85.8966 147.548C86.0064 147.846 86.1535 148.096 86.3382 148.3C86.5232 148.504 86.7407 148.66 86.9914 148.77C87.2419 148.876 87.5112 148.929 87.7995 148.929C87.9716 148.929 88.1268 148.92 88.2645 148.901C88.4055 148.882 88.534 148.853 88.6498 148.812C88.769 148.771 88.8801 148.72 88.9835 148.657C89.0898 148.591 89.1948 148.511 89.2981 148.417C89.3295 148.389 89.3623 148.367 89.3969 148.352C89.4313 148.333 89.4672 148.323 89.5048 148.323ZM94.6412 147.36L93.8143 145.1C93.7738 145 93.7313 144.881 93.6876 144.743C93.6438 144.605 93.5998 144.457 93.556 144.297C93.5152 144.457 93.4731 144.607 93.429 144.748C93.3853 144.886 93.3431 145.007 93.3023 145.11L92.48 147.36H94.6412ZM96.8729 149.925H95.8957C95.7862 149.925 95.6968 149.899 95.6278 149.846C95.5591 149.789 95.5072 149.72 95.4729 149.639L94.9655 148.253H92.1511L91.6437 149.639C91.6188 149.711 91.5702 149.777 91.4982 149.836C91.4263 149.896 91.3369 149.925 91.2303 149.925H90.2437L92.9171 143.132H94.2044L96.8729 149.925ZM99.6293 146.364C99.8672 146.364 100.074 146.334 100.249 146.275C100.428 146.215 100.574 146.134 100.686 146.031C100.802 145.924 100.888 145.799 100.945 145.655C101.001 145.511 101.029 145.353 101.029 145.18C101.029 144.836 100.915 144.571 100.686 144.386C100.461 144.201 100.115 144.109 99.6481 144.109H98.84V146.364H99.6293ZM102.88 149.925H101.739C101.523 149.925 101.366 149.841 101.269 149.672L99.8406 147.497C99.7874 147.415 99.7278 147.357 99.6621 147.323C99.5995 147.288 99.5055 147.271 99.3802 147.271H98.84V149.925H97.5761V143.132H99.6481C100.109 143.132 100.503 143.18 100.832 143.278C101.164 143.372 101.435 143.505 101.645 143.677C101.858 143.849 102.014 144.056 102.115 144.297C102.215 144.535 102.265 144.798 102.265 145.086C102.265 145.315 102.23 145.531 102.162 145.735C102.096 145.938 101.999 146.123 101.87 146.289C101.745 146.455 101.588 146.601 101.4 146.726C101.216 146.851 101.004 146.95 100.766 147.022C100.848 147.069 100.923 147.125 100.992 147.191C101.061 147.254 101.123 147.329 101.18 147.417L102.88 149.925ZM104.882 144.137V146.021H107.26V146.994H104.882V148.915H107.899V149.925H103.614V143.132H107.899V144.137H104.882Z" fill="#23334A"/>
<path d="M12.2044 121.734C12.0782 121.936 11.9437 122.087 11.8006 122.188C11.6661 122.289 11.4894 122.339 11.2707 122.339C11.0772 122.339 10.8669 122.281 10.6398 122.163C10.4211 122.037 10.1687 121.898 9.88271 121.746C9.60511 121.595 9.28545 121.46 8.92374 121.343C8.56204 121.216 8.14983 121.153 7.68718 121.153C6.88803 121.153 6.29079 121.326 5.89542 121.671C5.50848 122.007 5.31499 122.466 5.31499 123.046C5.31499 123.416 5.43277 123.723 5.6683 123.967C5.90382 124.211 6.21087 124.421 6.58941 124.598C6.97635 124.775 7.4138 124.939 7.90168 125.09C8.398 125.233 8.90272 125.397 9.41584 125.582C9.92897 125.759 10.4295 125.969 10.9174 126.213C11.4137 126.457 11.8511 126.768 12.2297 127.147C12.6166 127.525 12.9279 127.988 13.1634 128.535C13.3989 129.073 13.5167 129.725 13.5167 130.491C13.5167 131.34 13.3695 132.135 13.0751 132.875C12.7806 133.616 12.3516 134.263 11.788 134.819C11.2328 135.365 10.5431 135.798 9.71868 136.118C8.90272 136.429 7.97318 136.585 6.9301 136.585C6.35807 136.585 5.77346 136.526 5.17619 136.408C4.58736 136.291 4.01534 136.127 3.46015 135.916C2.90495 135.698 2.38341 135.441 1.89551 135.147C1.40762 134.852 0.982809 134.524 0.621094 134.162L1.88289 132.169C1.98384 132.026 2.11422 131.908 2.27405 131.815C2.44229 131.715 2.62315 131.664 2.81663 131.664C3.06899 131.664 3.32135 131.744 3.57371 131.904C3.83448 132.064 4.12469 132.24 4.44435 132.434C4.77242 132.627 5.14674 132.804 5.56735 132.964C5.98796 133.123 6.48425 133.203 7.05628 133.203C7.83019 133.203 8.43164 133.035 8.86065 132.699C9.28966 132.354 9.50417 131.811 9.50417 131.071C9.50417 130.642 9.38639 130.293 9.15087 130.024C8.91534 129.754 8.60408 129.532 8.21713 129.355C7.83859 129.178 7.40537 129.023 6.91748 128.888C6.42959 128.754 5.92906 128.606 5.41594 128.446C4.90281 128.278 4.40229 128.076 3.91439 127.841C3.4265 127.597 2.98907 127.281 2.60212 126.894C2.22358 126.499 1.91654 126.011 1.68101 125.431C1.44547 124.842 1.3277 124.118 1.3277 123.26C1.3277 122.571 1.4665 121.898 1.7441 121.242C2.02169 120.585 2.42968 120.001 2.96804 119.488C3.50641 118.975 4.16675 118.567 4.94907 118.264C5.73139 117.953 6.62726 117.797 7.63671 117.797C8.2003 117.797 8.74709 117.843 9.27705 117.936C9.81541 118.02 10.3243 118.15 10.8038 118.327C11.2833 118.495 11.7292 118.701 12.1413 118.945C12.5619 119.181 12.9363 119.45 13.2643 119.753L12.2044 121.734ZM25.3173 129.355L23.6139 124.32C23.4877 124.001 23.3531 123.626 23.2101 123.197C23.0671 122.76 22.9241 122.289 22.7811 121.784C22.6549 122.297 22.5203 122.773 22.3773 123.21C22.2343 123.647 22.0997 124.026 21.9735 124.346L20.2827 129.355H25.3173ZM32.0931 136.383H28.7872C28.4171 136.383 28.1185 136.299 27.8914 136.131C27.6642 135.954 27.4918 135.731 27.374 135.462L26.2889 132.257H19.2985L18.2134 135.462C18.1208 135.698 17.9526 135.912 17.7086 136.106C17.4731 136.291 17.1787 136.383 16.8254 136.383H13.4942L20.6108 117.999H24.9766L32.0931 136.383ZM37.8327 121.279V125.935H44.1164V129.229H37.8327V136.383H33.5425V117.999H45.3782V121.279H37.8327ZM56.0243 129.355L54.3209 124.32C54.1947 124.001 54.0602 123.626 53.9171 123.197C53.7743 122.76 53.6312 122.289 53.4881 121.784C53.3619 122.297 53.2274 122.773 53.0844 123.21C52.9415 123.647 52.8068 124.026 52.6806 124.346L50.9898 129.355H56.0243ZM62.8002 136.383H59.4943C59.1243 136.383 58.8255 136.299 58.5984 136.131C58.3713 135.954 58.1989 135.731 58.0811 135.462L56.9959 132.257H50.0056L48.9204 135.462C48.8281 135.698 48.6597 135.912 48.4157 136.106C48.1802 136.291 47.8857 136.383 47.5324 136.383H44.2013L51.3178 117.999H55.6837L62.8002 136.383ZM68.5398 136.383H64.2497V117.999H68.5398V136.383ZM78.0677 126.642C78.6482 126.642 79.1403 126.571 79.544 126.428C79.9561 126.276 80.2925 126.07 80.5535 125.809C80.8142 125.549 81.0034 125.246 81.1213 124.901C81.2389 124.548 81.2979 124.169 81.2979 123.765C81.2979 122.958 81.033 122.327 80.503 121.872C79.9814 121.418 79.1695 121.191 78.0677 121.191H76.3517V126.642H78.0677ZM87.1275 136.383H83.2663C82.5512 136.383 82.0381 136.114 81.727 135.576L78.6734 130.238C78.5303 130.011 78.3706 129.847 78.1939 129.746C78.0173 129.637 77.7649 129.582 77.4368 129.582H76.3517V136.383H72.0868V117.999H78.0677C79.3966 117.999 80.5282 118.138 81.462 118.415C82.404 118.684 83.1694 119.063 83.7585 119.551C84.3555 120.039 84.7888 120.615 85.0581 121.279C85.3271 121.944 85.4619 122.667 85.4619 123.45C85.4619 124.047 85.3819 124.611 85.2221 125.141C85.0621 125.671 84.8267 126.163 84.5155 126.617C84.2041 127.063 83.8172 127.462 83.3547 127.816C82.9004 128.169 82.3745 128.459 81.7774 128.686C82.055 128.829 82.3157 129.01 82.5597 129.229C82.8035 129.439 83.0223 129.691 83.2159 129.986L87.1275 136.383ZM106.396 127.185C106.396 128.514 106.165 129.75 105.702 130.894C105.248 132.038 104.604 133.035 103.771 133.885C102.939 134.726 101.933 135.386 100.756 135.866C99.5863 136.345 98.2866 136.585 96.8568 136.585C95.4266 136.585 94.1227 136.345 92.9452 135.866C91.7674 135.386 90.758 134.726 89.9168 133.885C89.0841 133.035 88.4362 132.038 87.9737 130.894C87.5194 129.75 87.2923 128.514 87.2923 127.185C87.2923 125.855 87.5194 124.619 87.9737 123.475C88.4362 122.331 89.0841 121.338 89.9168 120.497C90.758 119.656 91.7674 118.996 92.9452 118.516C94.1227 118.037 95.4266 117.797 96.8568 117.797C98.2866 117.797 99.5863 118.041 100.756 118.529C101.933 119.008 102.939 119.669 103.771 120.51C104.604 121.351 105.248 122.344 105.702 123.488C106.165 124.632 106.396 125.864 106.396 127.185ZM102.03 127.185C102.03 126.276 101.912 125.46 101.677 124.737C101.441 124.005 101.1 123.387 100.655 122.882C100.217 122.377 99.6789 121.99 99.0397 121.721C98.4002 121.452 97.6726 121.317 96.8568 121.317C96.0323 121.317 95.2962 121.452 94.6486 121.721C94.0091 121.99 93.4665 122.377 93.0209 122.882C92.5833 123.387 92.2469 124.005 92.0114 124.737C91.7757 125.46 91.6581 126.276 91.6581 127.185C91.6581 128.101 91.7757 128.926 92.0114 129.658C92.2469 130.381 92.5833 130.995 93.0209 131.5C93.4665 132.005 94.0091 132.392 94.6486 132.661C95.2962 132.922 96.0323 133.052 96.8568 133.052C97.6726 133.052 98.4002 132.922 99.0397 132.661C99.6789 132.392 100.217 132.005 100.655 131.5C101.1 130.995 101.441 130.381 101.677 129.658C101.912 128.926 102.03 128.101 102.03 127.185Z" fill="#23334A"/>
<path d="M79.1327 70.1875C83.6698 65.6509 83.4077 58.1043 78.346 53.9156C73.9351 50.2661 67.3936 50.8119 63.3451 54.8598L59.1017 59.103L54.6306 63.5746C49.5039 68.701 42.7691 71.2638 36.0354 71.2638C29.3017 71.2638 22.5681 68.701 17.4413 63.5756C7.18875 53.3218 7.18875 36.6408 17.4413 26.389L21.9142 21.9165C30.0005 13.8297 24.2735 0.00390625 12.8375 0.00390625C5.74815 0.00390625 0 5.75065 0 12.8404V94.5518C0 101.641 5.74718 107.388 12.8375 107.388H36.6159C40.02 107.388 43.2854 106.036 45.6925 103.629L79.1327 70.1875Z" fill="#4E9F3D"/>
<path d="M70.7729 0.00189612C67.3687 0.00189612 64.1033 1.35448 61.6962 3.76137L28.2541 37.2008C23.9648 41.4899 23.9648 48.4687 28.2541 52.7588C32.5435 57.046 39.5237 57.0468 43.8122 52.7578L48.2841 48.2862V48.2854L52.3613 44.2084C62.4802 34.0925 78.9606 33.4471 89.3737 43.2594C100.194 53.4555 100.385 70.561 89.9445 81.0004L85.4726 85.472C77.3861 93.5585 83.1133 107.384 94.5492 107.384C101.639 107.384 107.387 101.638 107.387 94.5478V12.8365C107.387 5.74769 101.64 0 94.5492 0H70.7729V0.00189612Z" fill="#23334A"/>
</svg>
